<?xml version="1.0" encoding="UTF-8" standalone="no"?>
<!DOCTYPE score-partwise PUBLIC "-//Recordare//DTD MusicXML 2.0 Partwise//EN" "http://www.musicxml.org/dtds/partwise.dtd">
<score-partwise version="2.0">
  <movement-title>A Whole New World</movement-title>
  <identification>
    <creator type="composer">Music by Alan Menken

Lyrics by Tim Rice

</creator>
    <rights>© 1992 Wonderland Music Company, Inc. and Walt Disney Music Company

All Rights Reserved   Used by Permission</rights>
    <encoding>
      <software>Sibelius 6.2</software>
      <software>Dolet 5.6 for Sibelius</software>
      <encoding-date>2011-06-03</encoding-date>
      <supports element="accidental" type="no"/>
      <supports element="transpose" type="no"/>
      <supports attribute="new-page" element="print" type="yes" value="yes"/>
      <supports attribute="new-system" element="print" type="yes" value="yes"/>
    </encoding>
  </identification>
  <defaults>
    <scaling>
      <millimeters>8.382</millimeters>
      <tenths>40</tenths>
    </scaling>
    <page-layout>
      <page-height>1333</page-height>
      <page-width>1030</page-width>
      <page-margins type="both">
        <left-margin>42.4242</left-margin>
        <right-margin>42.4242</right-margin>
        <top-margin>30.303</top-margin>
        <bottom-margin>30.303</bottom-margin>
      </page-margins>
    </page-layout>
    <system-layout>
      <system-margins>
        <left-margin>21.875</left-margin>
        <right-margin>0</right-margin>
      </system-margins>
      <system-distance>90</system-distance>
      <top-system-distance>60</top-system-distance>
    </system-layout>
    <staff-layout>
      <staff-distance>65</staff-distance>
    </staff-layout>
    <?DoletSibelius StaffJustificationPercentage=50?>
    <appearance>
      <line-width type="beam">5</line-width>
      <line-width type="heavy barline">5</line-width>
      <line-width type="leger">1.5625</line-width>
      <line-width type="light barline">1.5625</line-width>
      <line-width type="slur middle">2.1875</line-width>
      <line-width type="slur tip">0.625</line-width>
      <line-width type="staff">0.9375</line-width>
      <line-width type="stem">0.9375</line-width>
      <line-width type="tie middle">2.1875</line-width>
      <line-width type="tie tip">0.625</line-width>
      <note-size type="grace">60</note-size>
      <note-size type="cue">75</note-size>
    </appearance>
    <music-font font-family="Opus,music"/>
    <word-font font-family="Times New Roman"/>
  </defaults>
  <part-list>
    <score-part id="P1">
      <part-name print-object="no">Piano</part-name>
      <score-instrument id="P1-I1">
        <instrument-name>Keyboard (C-1-G9)</instrument-name>
        <instrument-abbreviation>Kbd.</instrument-abbreviation>
      </score-instrument>
      <midi-instrument id="P1-I1">
        <volume>79</volume>
        <pan>-18</pan>
      </midi-instrument>
    </score-part>
  </part-list>
  <!--=========================================================-->
  <part id="P1">
    <measure number="1">
      <print>
        <staff-layout>
          <?DoletSibelius JustifyAllStaves=true?>
        </staff-layout>
      </print>
      <attributes>
        <divisions>768</divisions>
        <key>
          <fifths>2</fifths>
          <mode>major</mode>
        </key>
        <time>
          <beats>4</beats>
          <beat-type>4</beat-type>
        </time>
        <staves>2</staves>
        <clef number="1">
          <sign>G</sign>
          <line>2</line>
        </clef>
        <clef number="2">
          <sign>F</sign>
          <line>4</line>
        </clef>
      </attributes>
      <direction placement="above" directive="yes">
        <direction-type>
          <words font-weight="bold">Moderately</words>
        </direction-type>
        <staff>1</staff>
      </direction>
      <harmony print-frame="no" default-y="15" relative-x="6">
        <root>
          <root-step>D</root-step>
        </root>
        <kind text="">major</kind>
        <staff>1</staff>
      </harmony>
      <note>
        <pitch>
          <step>F</step>
          <alter>1</alter>
          <octave>4</octave>
        </pitch>
        <duration>768</duration>
        <voice>1</voice>
        <type>quarter</type>
        <staff>1</staff>
        <lyric number="1" name="verse" default-y="-85">
          <syllabic>single</syllabic>
          <text>I</text>
        </lyric>
      </note>
      <note>
        <pitch>
          <step>F</step>
          <alter>1</alter>
          <octave>4</octave>
        </pitch>
        <duration>384</duration>
        <voice>1</voice>
        <type>eighth</type>
        <staff>1</staff>
        <beam number="1">begin</beam>
        <lyric number="1" name="verse" default-y="-85">
          <syllabic>single</syllabic>
          <text>can</text>
        </lyric>
      </note>
      <direction placement="above">
        <direction-type>
          <words>from Walt Disney’s ALADDIN</words>
        </direction-type>
        <staff>1</staff>
      </direction>
      <note>
        <pitch>
          <step>G</step>
          <octave>4</octave>
        </pitch>
        <duration>384</duration>
        <tie type="start"/>
        <voice>1</voice>
        <type>eighth</type>
        <staff>1</staff>
        <beam number="1">end</beam>
        <notations>
          <tied type="start"/>
        </notations>
        <lyric number="1" name="verse" default-y="-85">
          <syllabic>single</syllabic>
          <text>show</text>
          <extend/>
        </lyric>
      </note>
      <note>
        <pitch>
          <step>G</step>
          <octave>4</octave>
        </pitch>
        <duration>384</duration>
        <tie type="stop"/>
        <voice>1</voice>
        <type>eighth</type>
        <staff>1</staff>
        <beam number="1">begin</beam>
        <notations>
          <tied type="stop"/>
        </notations>
      </note>
      <note>
        <pitch>
          <step>F</step>
          <alter>1</alter>
          <octave>4</octave>
        </pitch>
        <duration>384</duration>
        <voice>1</voice>
        <type>eighth</type>
        <staff>1</staff>
        <beam number="1">end</beam>
        <lyric number="1" name="verse" default-y="-85">
          <syllabic>single</syllabic>
          <text>you</text>
        </lyric>
      </note>
      <note>
        <pitch>
          <step>D</step>
          <octave>4</octave>
        </pitch>
        <duration>768</duration>
        <voice>1</voice>
        <type>quarter</type>
        <staff>1</staff>
        <lyric number="1" name="verse" default-y="-85">
          <syllabic>single</syllabic>
          <text>the</text>
        </lyric>
      </note>
      <backup>
        <duration>3072</duration>
      </backup>
      <direction>
        <direction-type>
          <dynamics default-y="35" relative-x="-10">
            <mf/>
          </dynamics>
        </direction-type>
        <staff>2</staff>
      </direction>
      <note>
        <pitch>
          <step>D</step>
          <octave>3</octave>
        </pitch>
        <duration>3072</duration>
        <voice>5</voice>
        <type>whole</type>
        <staff>2</staff>
      </note>
    </measure>
    <!--=========================================================-->
    <measure number="2">
      <print new-system="no"/>
      <note>
        <pitch>
          <step>A</step>
          <octave>3</octave>
        </pitch>
        <duration>2304</duration>
        <voice>1</voice>
        <type>half</type>
        <dot/>
        <staff>1</staff>
        <lyric number="1" name="verse" default-y="-85" relative-x="11">
          <syllabic>single</syllabic>
          <text>world,</text>
        </lyric>
      </note>
      <note>
        <rest/>
        <duration>768</duration>
        <voice>1</voice>
        <type>quarter</type>
        <staff>1</staff>
      </note>
      <backup>
        <duration>3072</duration>
      </backup>
      <note>
        <pitch>
          <step>F</step>
          <alter>1</alter>
          <octave>3</octave>
        </pitch>
        <duration>3072</duration>
        <voice>5</voice>
        <type>whole</type>
        <staff>2</staff>
      </note>
      <backup>
        <duration>3072</duration>
      </backup>
      <note>
        <pitch>
          <step>D</step>
          <octave>3</octave>
        </pitch>
        <duration>1152</duration>
        <voice>6</voice>
        <type>quarter</type>
        <dot/>
        <staff>2</staff>
      </note>
      <note>
        <pitch>
          <step>A</step>
          <octave>2</octave>
        </pitch>
        <duration>384</duration>
        <voice>6</voice>
        <type>eighth</type>
        <staff>2</staff>
      </note>
      <note>
        <pitch>
          <step>B</step>
          <octave>2</octave>
        </pitch>
        <duration>768</duration>
        <voice>6</voice>
        <type>quarter</type>
        <staff>2</staff>
      </note>
      <note>
        <pitch>
          <step>A</step>
          <octave>2</octave>
        </pitch>
        <duration>768</duration>
        <voice>6</voice>
        <type>quarter</type>
        <staff>2</staff>
      </note>
    </measure>
    <!--=========================================================-->
    <measure number="3">
      <print new-system="no"/>
      <note>
        <pitch>
          <step>F</step>
          <alter>1</alter>
          <octave>4</octave>
        </pitch>
        <duration>768</duration>
        <voice>1</voice>
        <type>quarter</type>
        <staff>1</staff>
        <lyric number="1" name="verse" default-y="-85">
          <syllabic>begin</syllabic>
          <text>shin</text>
        </lyric>
      </note>
      <note>
        <pitch>
          <step>E</step>
          <octave>4</octave>
        </pitch>
        <duration>384</duration>
        <voice>1</voice>
        <type>eighth</type>
        <staff>1</staff>
        <beam number="1">begin</beam>
        <lyric number="1" name="verse" default-y="-85">
          <syllabic>end</syllabic>
          <text>ing</text>
        </lyric>
      </note>
      <note>
        <pitch>
          <step>G</step>
          <octave>4</octave>
        </pitch>
        <duration>384</duration>
        <tie type="start"/>
        <voice>1</voice>
        <type>eighth</type>
        <staff>1</staff>
        <beam number="1">end</beam>
        <notations>
          <tied type="start"/>
        </notations>
        <lyric number="1" name="verse" default-y="-85">
          <syllabic>begin</syllabic>
          <text>shim</text>
          <extend/>
        </lyric>
      </note>
      <note>
        <pitch>
          <step>G</step>
          <octave>4</octave>
        </pitch>
        <duration>384</duration>
        <tie type="stop"/>
        <voice>1</voice>
        <type>eighth</type>
        <staff>1</staff>
        <beam number="1">begin</beam>
        <notations>
          <tied type="stop"/>
        </notations>
      </note>
      <note>
        <pitch>
          <step>F</step>
          <alter>1</alter>
          <octave>4</octave>
        </pitch>
        <duration>384</duration>
        <voice>1</voice>
        <type>eighth</type>
        <staff>1</staff>
        <beam number="1">end</beam>
        <lyric number="1" name="verse" default-y="-85">
          <syllabic>middle</syllabic>
          <text>mer</text>
        </lyric>
      </note>
      <note>
        <pitch>
          <step>D</step>
          <octave>4</octave>
        </pitch>
        <duration>768</duration>
        <voice>1</voice>
        <type>quarter</type>
        <staff>1</staff>
        <lyric number="1" name="verse" default-y="-85">
          <syllabic>end</syllabic>
          <text>ing,</text>
        </lyric>
      </note>
      <backup>
        <duration>3072</duration>
      </backup>
      <note>
        <pitch>
          <step>D</step>
          <octave>3</octave>
        </pitch>
        <duration>3072</duration>
        <voice>5</voice>
        <type>whole</type>
        <staff>2</staff>
      </note>
    </measure>
    <!--=========================================================-->
    <measure number="4">
      <print new-system="yes"/>
      <harmony print-frame="no" default-y="15">
        <root>
          <root-step>G</root-step>
        </root>
        <kind text="maj7">major-seventh</kind>
        <bass>
          <bass-step>B</bass-step>
        </bass>
        <offset>207</offset>
        <staff>1</staff>
      </harmony>
      <note>
        <pitch>
          <step>F</step>
          <alter>1</alter>
          <octave>4</octave>
        </pitch>
        <duration>1536</duration>
        <voice>1</voice>
        <type>half</type>
        <staff>1</staff>
        <lyric number="1" name="verse" default-y="-80">
          <syllabic>begin</syllabic>
          <text>splen</text>
        </lyric>
      </note>
      <harmony print-frame="no" default-y="15" relative-x="6">
        <root>
          <root-step>A</root-step>
        </root>
        <kind text="">major</kind>
        <bass>
          <bass-step>C</bass-step>
          <bass-alter>1</bass-alter>
        </bass>
        <staff>1</staff>
      </harmony>
      <note>
        <pitch>
          <step>E</step>
          <octave>4</octave>
        </pitch>
        <duration>1536</duration>
        <voice>1</voice>
        <type>half</type>
        <staff>1</staff>
        <lyric number="1" name="verse" default-y="-80">
          <syllabic>end</syllabic>
          <text>did.</text>
        </lyric>
      </note>
      <backup>
        <duration>3072</duration>
      </backup>
      <note>
        <pitch>
          <step>B</step>
          <octave>2</octave>
        </pitch>
        <duration>1536</duration>
        <voice>5</voice>
        <type>half</type>
        <staff>2</staff>
      </note>
      <note>
        <chord/>
        <pitch>
          <step>G</step>
          <octave>3</octave>
        </pitch>
        <duration>1536</duration>
        <voice>5</voice>
        <type>half</type>
        <staff>2</staff>
      </note>
      <note>
        <pitch>
          <step>C</step>
          <alter>1</alter>
          <octave>3</octave>
        </pitch>
        <duration>1536</duration>
        <voice>5</voice>
        <type>half</type>
        <staff>2</staff>
      </note>
      <note>
        <chord/>
        <pitch>
          <step>A</step>
          <octave>3</octave>
        </pitch>
        <duration>1536</duration>
        <voice>5</voice>
        <type>half</type>
        <staff>2</staff>
      </note>
    </measure>
    <!--=========================================================-->
    <measure number="5">
      <print new-system="no"/>
      <harmony print-frame="no" default-y="15" relative-x="15">
        <root>
          <root-step>E</root-step>
        </root>
        <kind text="m">minor</kind>
        <bass>
          <bass-step>G</bass-step>
        </bass>
        <staff>1</staff>
      </harmony>
      <note>
        <pitch>
          <step>E</step>
          <octave>4</octave>
        </pitch>
        <duration>768</duration>
        <voice>1</voice>
        <type>quarter</type>
        <staff>1</staff>
        <lyric number="1" name="verse" default-y="-80">
          <syllabic>single</syllabic>
          <text>Tell</text>
        </lyric>
      </note>
      <note>
        <pitch>
          <step>D</step>
          <alter>1</alter>
          <octave>4</octave>
        </pitch>
        <duration>384</duration>
        <voice>1</voice>
        <type>eighth</type>
        <staff>1</staff>
        <beam number="1">begin</beam>
        <lyric number="1" name="verse" default-y="-80">
          <syllabic>single</syllabic>
          <text>me,</text>
        </lyric>
      </note>
      <note>
        <pitch>
          <step>F</step>
          <alter>1</alter>
          <octave>4</octave>
        </pitch>
        <duration>384</duration>
        <tie type="start"/>
        <voice>1</voice>
        <type>eighth</type>
        <staff>1</staff>
        <beam number="1">end</beam>
        <notations>
          <tied type="start"/>
        </notations>
        <lyric number="1" name="verse" default-y="-80">
          <syllabic>begin</syllabic>
          <text>prin</text>
          <extend/>
        </lyric>
      </note>
      <harmony print-frame="no" default-y="15" relative-x="6">
        <root>
          <root-step>F</root-step>
          <root-alter>1</root-alter>
        </root>
        <kind text="">major</kind>
        <staff>1</staff>
      </harmony>
      <note>
        <pitch>
          <step>F</step>
          <alter>1</alter>
          <octave>4</octave>
        </pitch>
        <duration>384</duration>
        <tie type="stop"/>
        <voice>1</voice>
        <type>eighth</type>
        <staff>1</staff>
        <beam number="1">begin</beam>
        <notations>
          <tied type="stop"/>
        </notations>
      </note>
      <note>
        <pitch>
          <step>E</step>
          <octave>4</octave>
        </pitch>
        <duration>384</duration>
        <voice>1</voice>
        <type>eighth</type>
        <staff>1</staff>
        <beam number="1">end</beam>
        <lyric number="1" name="verse" default-y="-80">
          <syllabic>end</syllabic>
          <text>cess,</text>
        </lyric>
      </note>
      <note>
        <pitch>
          <step>C</step>
          <alter>1</alter>
          <octave>4</octave>
        </pitch>
        <duration>768</duration>
        <voice>1</voice>
        <type>quarter</type>
        <staff>1</staff>
        <lyric number="1" name="verse" default-y="-80">
          <syllabic>single</syllabic>
          <text>now</text>
        </lyric>
      </note>
      <backup>
        <duration>3072</duration>
      </backup>
      <note>
        <pitch>
          <step>G</step>
          <octave>3</octave>
        </pitch>
        <duration>1536</duration>
        <voice>5</voice>
        <type>half</type>
        <staff>2</staff>
      </note>
      <note>
        <chord/>
        <pitch>
          <step>B</step>
          <octave>3</octave>
        </pitch>
        <duration>1536</duration>
        <voice>5</voice>
        <type>half</type>
        <staff>2</staff>
      </note>
      <note>
        <pitch>
          <step>F</step>
          <alter>1</alter>
          <octave>3</octave>
        </pitch>
        <duration>1536</duration>
        <voice>5</voice>
        <type>half</type>
        <staff>2</staff>
      </note>
      <note>
        <chord/>
        <pitch>
          <step>A</step>
          <alter>1</alter>
          <octave>3</octave>
        </pitch>
        <duration>1536</duration>
        <voice>5</voice>
        <type>half</type>
        <staff>2</staff>
      </note>
    </measure>
    <!--=========================================================-->
    <measure number="6">
      <print new-system="no"/>
      <harmony print-frame="no" default-y="15" relative-x="6">
        <root>
          <root-step>B</root-step>
        </root>
        <kind text="m">minor</kind>
        <staff>1</staff>
      </harmony>
      <note>
        <pitch>
          <step>E</step>
          <octave>4</octave>
        </pitch>
        <duration>768</duration>
        <voice>1</voice>
        <type>quarter</type>
        <staff>1</staff>
        <lyric number="1" name="verse" default-y="-80" relative-x="9">
          <syllabic>single</syllabic>
          <text>when</text>
        </lyric>
      </note>
      <note>
        <pitch>
          <step>D</step>
          <octave>4</octave>
        </pitch>
        <duration>768</duration>
        <voice>1</voice>
        <type>quarter</type>
        <accidental>natural</accidental>
        <staff>1</staff>
        <lyric number="1" name="verse" default-y="-80">
          <syllabic>single</syllabic>
          <text>did</text>
        </lyric>
      </note>
      <harmony print-frame="no" default-y="15" relative-x="6">
        <root>
          <root-step>A</root-step>
        </root>
        <kind text="">major</kind>
        <staff>1</staff>
      </harmony>
      <note>
        <pitch>
          <step>C</step>
          <alter>1</alter>
          <octave>4</octave>
        </pitch>
        <duration>768</duration>
        <voice>1</voice>
        <type>quarter</type>
        <staff>1</staff>
        <lyric number="1" name="verse" default-y="-80">
          <syllabic>single</syllabic>
          <text>you</text>
        </lyric>
      </note>
      <note>
        <pitch>
          <step>D</step>
          <octave>4</octave>
        </pitch>
        <duration>768</duration>
        <voice>1</voice>
        <type>quarter</type>
        <staff>1</staff>
        <lyric number="1" name="verse" default-y="-80">
          <syllabic>single</syllabic>
          <text>last</text>
        </lyric>
      </note>
      <backup>
        <duration>3072</duration>
      </backup>
      <note>
        <pitch>
          <step>B</step>
          <octave>3</octave>
        </pitch>
        <duration>1536</duration>
        <voice>5</voice>
        <type>half</type>
        <staff>2</staff>
      </note>
      <note>
        <pitch>
          <step>A</step>
          <octave>3</octave>
        </pitch>
        <duration>1536</duration>
        <voice>5</voice>
        <type>half</type>
        <accidental>natural</accidental>
        <staff>2</staff>
      </note>
    </measure>
    <!--=========================================================-->
    <measure number="7">
      <print new-system="yes"/>
      <harmony print-frame="no" default-y="15" relative-x="6">
        <root>
          <root-step>G</root-step>
        </root>
        <kind text="">major</kind>
        <staff>1</staff>
      </harmony>
      <note>
        <pitch>
          <step>B</step>
          <octave>3</octave>
        </pitch>
        <duration>768</duration>
        <voice>1</voice>
        <type>quarter</type>
        <staff>1</staff>
        <lyric number="1" name="verse" default-y="-96">
          <syllabic>single</syllabic>
          <text>let</text>
        </lyric>
      </note>
      <note>
        <pitch>
          <step>C</step>
          <alter>1</alter>
          <octave>4</octave>
        </pitch>
        <duration>384</duration>
        <voice>1</voice>
        <type>eighth</type>
        <staff>1</staff>
        <beam number="1">begin</beam>
        <lyric number="1" name="verse" default-y="-96">
          <syllabic>single</syllabic>
          <text>your</text>
        </lyric>
      </note>
      <note>
        <pitch>
          <step>E</step>
          <octave>4</octave>
        </pitch>
        <duration>384</duration>
        <tie type="start"/>
        <voice>1</voice>
        <type>eighth</type>
        <staff>1</staff>
        <beam number="1">end</beam>
        <notations>
          <tied type="start"/>
        </notations>
        <lyric number="1" name="verse" default-y="-96">
          <syllabic>single</syllabic>
          <text>heart</text>
          <extend/>
        </lyric>
      </note>
      <note>
        <pitch>
          <step>E</step>
          <octave>4</octave>
        </pitch>
        <duration>768</duration>
        <tie type="stop"/>
        <voice>1</voice>
        <type>quarter</type>
        <staff>1</staff>
        <notations>
          <tied type="stop"/>
        </notations>
      </note>
      <note>
        <pitch>
          <step>D</step>
          <octave>4</octave>
        </pitch>
        <duration>384</duration>
        <voice>1</voice>
        <type>eighth</type>
        <staff>1</staff>
        <beam number="1">begin</beam>
        <lyric number="1" name="verse" default-y="-96">
          <syllabic>begin</syllabic>
          <text>de</text>
        </lyric>
      </note>
      <note>
        <pitch>
          <step>A</step>
          <octave>3</octave>
        </pitch>
        <duration>384</duration>
        <tie type="start"/>
        <voice>1</voice>
        <type>eighth</type>
        <staff>1</staff>
        <beam number="1">end</beam>
        <notations>
          <tied type="start"/>
        </notations>
        <lyric number="1" name="verse" default-y="-96">
          <syllabic>end</syllabic>
          <text>cide?</text>
          <extend/>
        </lyric>
      </note>
      <backup>
        <duration>3072</duration>
      </backup>
      <note>
        <pitch>
          <step>G</step>
          <octave>3</octave>
        </pitch>
        <duration>3072</duration>
        <voice>5</voice>
        <type>whole</type>
        <staff>2</staff>
      </note>
    </measure>
    <!--=========================================================-->
    <measure number="8">
      <print new-system="no"/>
      <harmony print-frame="no" default-y="15" relative-x="6">
        <root>
          <root-step>D</root-step>
        </root>
        <kind text="">major</kind>
        <staff>1</staff>
      </harmony>
      <note>
        <pitch>
          <step>A</step>
          <octave>3</octave>
        </pitch>
        <duration>2304</duration>
        <tie type="stop"/>
        <voice>1</voice>
        <type>half</type>
        <dot/>
        <staff>1</staff>
        <notations>
          <tied type="stop"/>
        </notations>
      </note>
      <note>
        <rest/>
        <duration>768</duration>
        <voice>1</voice>
        <type>quarter</type>
        <staff>1</staff>
      </note>
      <backup>
        <duration>3072</duration>
      </backup>
      <note>
        <rest/>
        <duration>768</duration>
        <voice>5</voice>
        <type>quarter</type>
        <staff>2</staff>
      </note>
      <note>
        <pitch>
          <step>D</step>
          <octave>3</octave>
        </pitch>
        <duration>1536</duration>
        <voice>5</voice>
        <type>half</type>
        <staff>2</staff>
      </note>
      <note>
        <chord/>
        <pitch>
          <step>F</step>
          <alter>1</alter>
          <octave>3</octave>
        </pitch>
        <duration>1536</duration>
        <voice>5</voice>
        <type>half</type>
        <staff>2</staff>
      </note>
      <note>
        <pitch>
          <step>D</step>
          <octave>3</octave>
        </pitch>
        <duration>768</duration>
        <voice>5</voice>
        <type>quarter</type>
        <staff>2</staff>
      </note>
      <note>
        <chord/>
        <pitch>
          <step>F</step>
          <alter>1</alter>
          <octave>3</octave>
        </pitch>
        <duration>768</duration>
        <voice>5</voice>
        <type>quarter</type>
        <staff>2</staff>
      </note>
    </measure>
    <!--=========================================================-->
    <measure number="9">
      <print new-system="no"/>
      <note>
        <pitch>
          <step>F</step>
          <alter>1</alter>
          <octave>4</octave>
        </pitch>
        <duration>768</duration>
        <voice>1</voice>
        <type>quarter</type>
        <staff>1</staff>
        <lyric number="1" name="verse" default-y="-96">
          <syllabic>single</syllabic>
          <text>I</text>
        </lyric>
      </note>
      <note>
        <pitch>
          <step>E</step>
          <octave>4</octave>
        </pitch>
        <duration>384</duration>
        <voice>1</voice>
        <type>eighth</type>
        <staff>1</staff>
        <beam number="1">begin</beam>
        <lyric number="1" name="verse" default-y="-96">
          <syllabic>single</syllabic>
          <text>can</text>
        </lyric>
      </note>
      <note>
        <pitch>
          <step>G</step>
          <octave>4</octave>
        </pitch>
        <duration>384</duration>
        <tie type="start"/>
        <voice>1</voice>
        <type>eighth</type>
        <staff>1</staff>
        <beam number="1">end</beam>
        <notations>
          <tied type="start"/>
        </notations>
        <lyric number="1" name="verse" default-y="-96">
          <syllabic>begin</syllabic>
          <text>o</text>
          <extend/>
        </lyric>
      </note>
      <note>
        <pitch>
          <step>G</step>
          <octave>4</octave>
        </pitch>
        <duration>384</duration>
        <tie type="stop"/>
        <voice>1</voice>
        <type>eighth</type>
        <staff>1</staff>
        <beam number="1">begin</beam>
        <notations>
          <tied type="stop"/>
        </notations>
      </note>
      <note>
        <pitch>
          <step>F</step>
          <alter>1</alter>
          <octave>4</octave>
        </pitch>
        <duration>384</duration>
        <voice>1</voice>
        <type>eighth</type>
        <staff>1</staff>
        <beam number="1">end</beam>
        <lyric number="1" name="verse" default-y="-96">
          <syllabic>end</syllabic>
          <text>pen</text>
        </lyric>
      </note>
      <note>
        <pitch>
          <step>D</step>
          <octave>4</octave>
        </pitch>
        <duration>768</duration>
        <voice>1</voice>
        <type>quarter</type>
        <staff>1</staff>
        <lyric number="1" name="verse" default-y="-96">
          <syllabic>single</syllabic>
          <text>your</text>
        </lyric>
      </note>
      <backup>
        <duration>3072</duration>
      </backup>
      <note>
        <pitch>
          <step>D</step>
          <octave>3</octave>
        </pitch>
        <duration>3072</duration>
        <voice>5</voice>
        <type>whole</type>
        <staff>2</staff>
      </note>
      <note>
        <chord/>
        <pitch>
          <step>A</step>
          <octave>3</octave>
        </pitch>
        <duration>3072</duration>
        <voice>5</voice>
        <type>whole</type>
        <staff>2</staff>
      </note>
    </measure>
    <!--=========================================================-->
    <measure number="10">
      <print new-page="yes"/>
      <note>
        <pitch>
          <step>A</step>
          <octave>3</octave>
        </pitch>
        <duration>3072</duration>
        <voice>1</voice>
        <type>whole</type>
        <staff>1</staff>
        <lyric number="1" name="verse" default-y="-96">
          <syllabic>single</syllabic>
          <text>eyes,</text>
        </lyric>
      </note>
      <backup>
        <duration>3072</duration>
      </backup>
      <note>
        <pitch>
          <step>F</step>
          <alter>1</alter>
          <octave>3</octave>
        </pitch>
        <duration>3072</duration>
        <voice>5</voice>
        <type>whole</type>
        <staff>2</staff>
      </note>
      <backup>
        <duration>3072</duration>
      </backup>
      <note>
        <pitch>
          <step>D</step>
          <octave>3</octave>
        </pitch>
        <duration>1152</duration>
        <voice>6</voice>
        <type>quarter</type>
        <dot/>
        <staff>2</staff>
      </note>
      <note>
        <pitch>
          <step>A</step>
          <octave>2</octave>
        </pitch>
        <duration>384</duration>
        <voice>6</voice>
        <type>eighth</type>
        <staff>2</staff>
      </note>
      <note>
        <pitch>
          <step>B</step>
          <octave>2</octave>
        </pitch>
        <duration>768</duration>
        <voice>6</voice>
        <type>quarter</type>
        <staff>2</staff>
      </note>
      <note>
        <pitch>
          <step>A</step>
          <octave>2</octave>
        </pitch>
        <duration>768</duration>
        <voice>6</voice>
        <type>quarter</type>
        <staff>2</staff>
      </note>
    </measure>
    <!--=========================================================-->
    <measure number="11">
      <print new-system="no"/>
      <note>
        <pitch>
          <step>F</step>
          <alter>1</alter>
          <octave>4</octave>
        </pitch>
        <duration>768</duration>
        <voice>1</voice>
        <type>quarter</type>
        <staff>1</staff>
        <lyric number="1" name="verse" default-y="-96">
          <syllabic>single</syllabic>
          <text>take</text>
        </lyric>
      </note>
      <note>
        <pitch>
          <step>E</step>
          <octave>4</octave>
        </pitch>
        <duration>384</duration>
        <voice>1</voice>
        <type>eighth</type>
        <staff>1</staff>
        <beam number="1">begin</beam>
        <lyric number="1" name="verse" default-y="-96">
          <syllabic>single</syllabic>
          <text>you</text>
        </lyric>
      </note>
      <note>
        <pitch>
          <step>G</step>
          <octave>4</octave>
        </pitch>
        <duration>384</duration>
        <tie type="start"/>
        <voice>1</voice>
        <type>eighth</type>
        <staff>1</staff>
        <beam number="1">end</beam>
        <notations>
          <tied type="start"/>
        </notations>
        <lyric number="1" name="verse" default-y="-96">
          <syllabic>begin</syllabic>
          <text>won</text>
          <extend/>
        </lyric>
      </note>
      <note>
        <pitch>
          <step>G</step>
          <octave>4</octave>
        </pitch>
        <duration>384</duration>
        <tie type="stop"/>
        <voice>1</voice>
        <type>eighth</type>
        <staff>1</staff>
        <beam number="1">begin</beam>
        <notations>
          <tied type="stop"/>
        </notations>
      </note>
      <note>
        <pitch>
          <step>F</step>
          <alter>1</alter>
          <octave>4</octave>
        </pitch>
        <duration>384</duration>
        <voice>1</voice>
        <type>eighth</type>
        <staff>1</staff>
        <beam number="1">end</beam>
        <lyric number="1" name="verse" default-y="-96">
          <syllabic>end</syllabic>
          <text>der</text>
        </lyric>
      </note>
      <note>
        <pitch>
          <step>D</step>
          <octave>4</octave>
        </pitch>
        <duration>768</duration>
        <voice>1</voice>
        <type>quarter</type>
        <staff>1</staff>
        <lyric number="1" name="verse" default-y="-96">
          <syllabic>single</syllabic>
          <text>by</text>
        </lyric>
      </note>
      <backup>
        <duration>3072</duration>
      </backup>
      <note>
        <pitch>
          <step>D</step>
          <octave>3</octave>
        </pitch>
        <duration>3072</duration>
        <voice>5</voice>
        <type>whole</type>
        <staff>2</staff>
      </note>
      <note>
        <chord/>
        <pitch>
          <step>A</step>
          <octave>3</octave>
        </pitch>
        <duration>3072</duration>
        <voice>5</voice>
        <type>whole</type>
        <staff>2</staff>
      </note>
    </measure>
    <!--=========================================================-->
    <measure number="12">
      <print new-system="no"/>
      <harmony print-frame="no" default-y="15">
        <root>
          <root-step>G</root-step>
        </root>
        <kind text="maj7">major-seventh</kind>
        <bass>
          <bass-step>B</bass-step>
        </bass>
        <offset>210</offset>
        <staff>1</staff>
      </harmony>
      <note>
        <pitch>
          <step>F</step>
          <alter>1</alter>
          <octave>4</octave>
        </pitch>
        <duration>1536</duration>
        <voice>1</voice>
        <type>half</type>
        <staff>1</staff>
        <lyric number="1" name="verse" default-y="-96">
          <syllabic>begin</syllabic>
          <text>won</text>
        </lyric>
      </note>
      <harmony print-frame="no" default-y="15" relative-x="6">
        <root>
          <root-step>A</root-step>
        </root>
        <kind text="">major</kind>
        <bass>
          <bass-step>C</bass-step>
          <bass-alter>1</bass-alter>
        </bass>
        <staff>1</staff>
      </harmony>
      <note>
        <pitch>
          <step>E</step>
          <octave>4</octave>
        </pitch>
        <duration>1536</duration>
        <voice>1</voice>
        <type>half</type>
        <staff>1</staff>
        <lyric number="1" name="verse" default-y="-96">
          <syllabic>end</syllabic>
          <text>der</text>
        </lyric>
      </note>
      <backup>
        <duration>3072</duration>
      </backup>
      <note>
        <pitch>
          <step>B</step>
          <octave>2</octave>
        </pitch>
        <duration>1536</duration>
        <voice>5</voice>
        <type>half</type>
        <staff>2</staff>
      </note>
      <note>
        <chord/>
        <pitch>
          <step>G</step>
          <octave>3</octave>
        </pitch>
        <duration>1536</duration>
        <voice>5</voice>
        <type>half</type>
        <staff>2</staff>
      </note>
      <note>
        <pitch>
          <step>C</step>
          <alter>1</alter>
          <octave>3</octave>
        </pitch>
        <duration>1536</duration>
        <voice>5</voice>
        <type>half</type>
        <staff>2</staff>
      </note>
      <note>
        <chord/>
        <pitch>
          <step>A</step>
          <octave>3</octave>
        </pitch>
        <duration>1536</duration>
        <voice>5</voice>
        <type>half</type>
        <staff>2</staff>
      </note>
    </measure>
    <!--=========================================================-->
    <measure number="13">
      <print new-system="yes"/>
      <harmony print-frame="no" default-y="15" relative-x="6">
        <root>
          <root-step>E</root-step>
        </root>
        <kind text="m">minor</kind>
        <bass>
          <bass-step>G</bass-step>
        </bass>
        <staff>1</staff>
      </harmony>
      <note>
        <pitch>
          <step>E</step>
          <octave>4</octave>
        </pitch>
        <duration>768</duration>
        <voice>1</voice>
        <type>quarter</type>
        <staff>1</staff>
        <lyric number="1" name="verse" default-y="-90">
          <syllabic>begin</syllabic>
          <text>o</text>
        </lyric>
      </note>
      <note>
        <pitch>
          <step>D</step>
          <alter>1</alter>
          <octave>4</octave>
        </pitch>
        <duration>384</duration>
        <voice>1</voice>
        <type>eighth</type>
        <staff>1</staff>
        <beam number="1">begin</beam>
        <lyric number="1" name="verse" default-y="-90">
          <syllabic>end</syllabic>
          <text>ver,</text>
        </lyric>
      </note>
      <note>
        <pitch>
          <step>F</step>
          <alter>1</alter>
          <octave>4</octave>
        </pitch>
        <duration>384</duration>
        <tie type="start"/>
        <voice>1</voice>
        <type>eighth</type>
        <staff>1</staff>
        <beam number="1">end</beam>
        <notations>
          <tied type="start"/>
        </notations>
        <lyric number="1" name="verse" default-y="-90">
          <syllabic>begin</syllabic>
          <text>side</text>
          <extend/>
        </lyric>
      </note>
      <harmony print-frame="no" default-y="15" relative-x="6">
        <root>
          <root-step>F</root-step>
          <root-alter>1</root-alter>
        </root>
        <kind text="">major</kind>
        <staff>1</staff>
      </harmony>
      <note>
        <pitch>
          <step>F</step>
          <alter>1</alter>
          <octave>4</octave>
        </pitch>
        <duration>384</duration>
        <tie type="stop"/>
        <voice>1</voice>
        <type>eighth</type>
        <staff>1</staff>
        <beam number="1">begin</beam>
        <notations>
          <tied type="stop"/>
        </notations>
      </note>
      <note>
        <pitch>
          <step>E</step>
          <octave>4</octave>
        </pitch>
        <duration>384</duration>
        <voice>1</voice>
        <type>eighth</type>
        <staff>1</staff>
        <beam number="1">end</beam>
        <lyric number="1" name="verse" default-y="-90">
          <syllabic>end</syllabic>
          <text>ways</text>
        </lyric>
      </note>
      <note>
        <pitch>
          <step>C</step>
          <alter>1</alter>
          <octave>4</octave>
        </pitch>
        <duration>768</duration>
        <voice>1</voice>
        <type>quarter</type>
        <staff>1</staff>
        <lyric number="1" name="verse" default-y="-90">
          <syllabic>single</syllabic>
          <text>and</text>
        </lyric>
      </note>
      <backup>
        <duration>3072</duration>
      </backup>
      <note>
        <pitch>
          <step>G</step>
          <octave>3</octave>
        </pitch>
        <duration>1536</duration>
        <voice>5</voice>
        <type>half</type>
        <staff>2</staff>
      </note>
      <note>
        <chord/>
        <pitch>
          <step>B</step>
          <octave>3</octave>
        </pitch>
        <duration>1536</duration>
        <voice>5</voice>
        <type>half</type>
        <staff>2</staff>
      </note>
      <note>
        <pitch>
          <step>F</step>
          <alter>1</alter>
          <octave>3</octave>
        </pitch>
        <duration>1536</duration>
        <voice>5</voice>
        <type>half</type>
        <staff>2</staff>
      </note>
      <note>
        <chord/>
        <pitch>
          <step>A</step>
          <alter>1</alter>
          <octave>3</octave>
        </pitch>
        <duration>1536</duration>
        <voice>5</voice>
        <type>half</type>
        <staff>2</staff>
      </note>
    </measure>
    <!--=========================================================-->
    <measure number="14">
      <print new-system="no"/>
      <harmony print-frame="no" default-y="15" relative-x="6">
        <root>
          <root-step>B</root-step>
        </root>
        <kind text="m">minor</kind>
        <staff>1</staff>
      </harmony>
      <note>
        <pitch>
          <step>E</step>
          <octave>4</octave>
        </pitch>
        <duration>768</duration>
        <voice>1</voice>
        <type>quarter</type>
        <staff>1</staff>
        <lyric number="1" name="verse" default-y="-90">
          <syllabic>begin</syllabic>
          <text>un</text>
        </lyric>
      </note>
      <note>
        <pitch>
          <step>D</step>
          <octave>4</octave>
        </pitch>
        <duration>768</duration>
        <voice>1</voice>
        <type>quarter</type>
        <accidental>natural</accidental>
        <staff>1</staff>
        <lyric number="1" name="verse" default-y="-90">
          <syllabic>end</syllabic>
          <text>der</text>
        </lyric>
      </note>
      <harmony print-frame="no" default-y="15" relative-x="6">
        <root>
          <root-step>A</root-step>
        </root>
        <kind text="">major</kind>
        <staff>1</staff>
      </harmony>
      <note>
        <pitch>
          <step>C</step>
          <alter>1</alter>
          <octave>4</octave>
        </pitch>
        <duration>768</duration>
        <voice>1</voice>
        <type>quarter</type>
        <staff>1</staff>
        <lyric number="1" name="verse" default-y="-90">
          <syllabic>single</syllabic>
          <text>on</text>
        </lyric>
      </note>
      <note>
        <pitch>
          <step>D</step>
          <octave>4</octave>
        </pitch>
        <duration>768</duration>
        <voice>1</voice>
        <type>quarter</type>
        <staff>1</staff>
        <lyric number="1" name="verse" default-y="-90">
          <syllabic>single</syllabic>
          <text>a</text>
        </lyric>
      </note>
      <backup>
        <duration>3072</duration>
      </backup>
      <note>
        <pitch>
          <step>B</step>
          <octave>3</octave>
        </pitch>
        <duration>1536</duration>
        <voice>5</voice>
        <type>half</type>
        <staff>2</staff>
      </note>
      <note>
        <pitch>
          <step>A</step>
          <octave>3</octave>
        </pitch>
        <duration>1536</duration>
        <voice>5</voice>
        <type>half</type>
        <staff>2</staff>
      </note>
    </measure>
  </part>
  <!--=========================================================-->
</score-partwise>
